<svg width="22" height="21" viewBox="0 0 22 21" fill="none" xmlns="http://www.w3.org/2000/svg">
<path d="M0.916672 0.916748H4.58334L7.04 13.1909C7.12383 13.6129 7.35342 13.992 7.68859 14.2619C8.02376 14.5317 8.44314 14.675 8.87334 14.6667H17.7833C18.2135 14.675 18.6329 14.5317 18.9681 14.2619C19.3033 13.992 19.5328 13.6129 19.6167 13.1909L21.0833 5.50008H5.5M9.16667 19.2501C9.16667 19.7563 8.75627 20.1667 8.25001 20.1667C7.74374 20.1667 7.33334 19.7563 7.33334 19.2501C7.33334 18.7438 7.74374 18.3334 8.25001 18.3334C8.75627 18.3334 9.16667 18.7438 9.16667 19.2501ZM19.25 19.2501C19.25 19.7563 18.8396 20.1667 18.3333 20.1667C17.8271 20.1667 17.4167 19.7563 17.4167 19.2501C17.4167 18.7438 17.8271 18.3334 18.3333 18.3334C18.8396 18.3334 19.25 18.7438 19.25 19.2501Z" stroke="#1E1E1E" stroke-width="1.6" stroke-linecap="round" stroke-linejoin="round"/>
</svg>
